#!OML:ASF I:\Actors\actors\Patient Classification 2\Patient 1\Session 1\actor1.ASF
:FULLY-SPECIFIED
:DEGREES
721
root -0.63929 18.7919 4.56425 4.72888 1.6559 -1.47663
lowerback 7.12197 2.1392 -0.544181
upperback -2.78829 2.88151 1.09081
thorax -7.0027 1.46697 1.06987
lowerneck -15.4565 -5.92846 -3.03945
upperneck 24.5106 -8.37829 3.00812
head 10.6928 -3.75291 0.425964
rclavicle -5.57839e-015 7.55382e-015
rhumerus 10.6378 15.3669 -60.6074
rradius 86.1384
rwrist 35.9368
rhand -38.7739 -53.4667
rfingers 7.12502
rthumb -11.7856 -83.1151
lclavicle -5.57839e-015 7.55382e-015
lhumerus -18.9403 -38.5559 89.9162
lradius 119.226
lwrist 49.5197
lhand -19.6245 -19.8125
lfingers 7.12502
lthumb 6.70232 10.0614
rfemur 0 0 0
rtibia 0
rfoot 0 0
rtoes 0
lfemur -9.99993 -6.8443 -12.7964
ltibia 22.7411
lfoot -20.1154 9.70144
ltoes -55.6649
722
root -0.643439 18.7938 4.56762 4.75121 1.59978 -1.54505
lowerback 6.97712 2.17148 -0.625607
upperback -2.73214 2.91401 1.05966
thorax -6.86296 1.48566 1.08519
lowerneck -15.5392 -5.95526 -2.94402
upperneck 24.5276 -8.4536 3.05298
head 10.7154 -3.7713 0.412691
rclavicle 3.67752e-015 2.18663e-014
rhumerus 12.9477 16.6528 -61.0788
rradius 85.7354
rwrist 35.7266
rhand -39.2697 -53.9212
rfingers 7.12502
rthumb -12.2637 -83.5416
lclavicle 3.67752e-015 2.18663e-014
lhumerus -18.8086 -38.556 89.9972
lradius 119.24
lwrist 49.5149
lhand -19.5216 -19.8455
lfingers 7.12502
lthumb 6.80164 10.0252
rfemur 0 0 0
rtibia 0
rfoot 0 0
rtoes 0
lfemur -9.99691 -6.8239 -12.7238
ltibia 22.7333
lfoot -20.1343 9.82826
ltoes -55.7598
723
root -0.646391 18.7961 4.57096 4.77882 1.52754 -1.59305
lowerback 6.68324 2.15851 -0.810994
upperback -2.5527 2.87999 1.09825
thorax -6.51444 1.47684 1.24841
lowerneck -15.7261 -5.9506 -2.8562
upperneck 24.453 -8.47157 3.08462
head 10.7221 -3.76568 0.401955
rclavicle -2.67738e-014 1.19271e-014
rhumerus 15.1554 17.939 -61.7287
rradius 85.4681
rwrist 35.9353
rhand -39.9713 -54.4768
rfingers 7.12502
rthumb -12.9401 -84.0556
lclavicle -2.67738e-014 1.19271e-014
lhumerus -18.374 -38.3683 89.8782
lradius 119.217
lwrist 49.5181
lhand -19.5009 -19.8418
lfingers 7.12502
lthumb 6.8216 10.0283
rfemur 0 0 0
rtibia 0
rfoot 0 0
rtoes 0
lfemur -9.99178 -6.79146 -12.6824
ltibia 22.7256
lfoot -20.1425 9.98012
ltoes -55.9148
724
root -0.648389 18.7984 4.57515 4.8044 1.40815 -1.61124
lowerback 6.97418 2.2419 -0.576059
upperback -2.78004 2.99779 0.819402
thorax -6.89811 1.51884 0.794511
lowerneck -15.6588 -6.06555 -2.68905
upperneck 24.6909 -8.74967 3.27647
head 10.8088 -3.85044 0.401824
rclavicle -3.4427e-014 1.09332e-014
rhumerus 15.5554 18.7259 -63.7296
rradius 85.4176
rwrist 37.4489
rhand -39.8159 -53.3249
rfingers 7.12502
rthumb -12.7903 -82.9131
lclavicle -3.4427e-014 1.09332e-014
lhumerus -18.6097 -38.6716 89.8757
lradius 119.186
lwrist 49.5191
lhand -19.5 -19.8067
lfingers 7.12502
lthumb 6.82249 10.0634
rfemur 0 0 0
rtibia 0
rfoot 0 0
rtoes 0
lfemur -9.97307 -6.76954 -12.6798
ltibia 22.7226
lfoot -20.1641 10.1557
ltoes -56.0136
725
root -0.650192 18.8004 4.58104 4.82856 1.2576 -1.65968
lowerback 6.80832 2.28736 -0.631086
upperback -2.70725 3.04987 0.772516
thorax -6.72684 1.54571 0.778079
lowerneck -15.7111 -6.11646 -2.62234
upperneck 24.7151 -8.88246 3.42486
head 10.8375 -3.88511 0.422273
rclavicle -4.40122e-015 -1.29707e-014
rhumerus 17.5494 20.3566 -63.7064
rradius 85.1564
rwrist 37.7143
rhand -39.9158 -52.9905
rfingers 7.12502
rthumb -12.8866 -82.5727
lclavicle -4.40122e-015 -1.29707e-014
lhumerus -18.3756 -38.6612 89.8829
lradius 119.053
lwrist 49.3922
lhand -19.4999 -19.7568
lfingers 7.12502
lthumb 6.82263 10.1133
rfemur 0 0 0
rtibia 0
rfoot 0 0
rtoes 0
lfemur -9.94447 -6.73003 -12.6442
ltibia 22.7218
lfoot -20.2284 10.3185
ltoes -55.9863
